<svg width="59" height="59" viewBox="0 0 59 59" fill="none" xmlns="http://www.w3.org/2000/svg">
<g id="person_outline">
<path id="Vector" d="M29.5 14.5042C32.3516 14.5042 34.6625 16.815 34.6625 19.6667C34.6625 22.5183 32.3516 24.8292 29.5 24.8292C26.6483 24.8292 24.3375 22.5183 24.3375 19.6667C24.3375 16.815 26.6483 14.5042 29.5 14.5042ZM29.5 36.6292C36.8012 36.6292 44.4958 40.2183 44.4958 41.7917V44.4958H14.5041V41.7917C14.5041 40.2183 22.1987 36.6292 29.5 36.6292ZM29.5 9.83334C24.0671 9.83334 19.6666 14.2338 19.6666 19.6667C19.6666 25.0996 24.0671 29.5 29.5 29.5C34.9329 29.5 39.3333 25.0996 39.3333 19.6667C39.3333 14.2338 34.9329 9.83334 29.5 9.83334ZM29.5 31.9583C22.9362 31.9583 9.83331 35.2525 9.83331 41.7917V49.1667H49.1666V41.7917C49.1666 35.2525 36.0637 31.9583 29.5 31.9583Z" fill="white"/>
</g>
</svg>
