<svg width="28" height="38" viewBox="0 0 28 38" fill="none" xmlns="http://www.w3.org/2000/svg">
<g id="Group">
<g id="Group_2">
<path id="Vector" d="M16.096 0.557499C19.8162 1.52146 22.5374 3.96312 22.8372 7.55056C23.028 9.8378 22.9158 12.8783 22.8372 15.2118C22.8276 15.4859 22.8516 15.7572 22.6704 15.9982C22.0306 15.9982 21.386 15.9982 20.7462 15.9982C21.8061 13.9707 21.2545 9.32552 20.5394 7.16526C20.1738 6.05988 19.6831 6.28932 18.5013 6.32973C16.4568 6.39755 14.648 6.99498 12.6693 6.16667C11.0161 5.47544 11.2694 4.69763 8.80963 5.03819C7.59737 5.20703 7.3809 7.66312 7.19328 8.63429C6.77477 10.7917 6.1526 14.0025 7.27667 15.9968C6.77316 15.9203 3.42822 16.1887 3.42822 15.7803V5.82466C3.42822 5.24744 4.72547 3.80438 5.27227 3.44361C6.42039 2.68601 7.62623 2.90391 8.39111 2.49841C8.90424 2.22712 9.30512 1.29923 10.2865 0.885073C11.5292 0.3598 14.616 0.508435 16.096 0.557499Z" fill="#796D79"/>
<path id="Vector_2" d="M16.0961 0.557495C19.6751 0.675826 22.6881 1.98324 24.0752 5.13776C24.9379 7.10032 25.0373 13.2954 24.739 15.4816C24.7198 15.623 24.6589 15.9679 24.4889 16.004C24.1105 16.0834 23.1532 15.9982 22.6721 15.9982C22.8533 15.7572 22.8292 15.4859 22.8389 15.2117C22.9174 12.8783 23.0297 9.8378 22.8389 7.55055C22.539 3.96311 19.8178 1.52146 16.0977 0.557495H16.0961Z" fill="#695E68"/>
</g>
<g id="Group_3">
<path id="Vector_3" d="M8.07839 20.3274C8.08481 20.805 7.98218 22.8643 8.14895 23.0778C8.32694 23.3087 10.0459 23.2193 10.4837 23.2135C11.016 23.2048 11.5548 23.2193 12.0888 23.2135C12.0936 22.6853 12.0792 22.1528 12.0888 21.6247C14.2247 21.7228 16.1313 21.5771 18.1822 21.0475C18.923 20.8555 19.7328 20.3707 19.946 20.3259C20.3469 20.2422 21.2176 20.336 21.7099 20.3259C21.8703 20.323 22.0306 20.323 22.191 20.3259C23.8233 20.9161 25.1703 21.8397 25.4862 23.4934C25.7716 24.9827 25.7251 29.2152 25.5632 30.7939C25.422 32.1792 24.8656 32.1489 23.4642 31.9498L13.6907 29.4158C13.6795 29.3119 13.8575 29.1733 13.8511 29.1286C15.004 28.5037 17.3371 27.8053 17.5103 26.42C17.5937 25.7489 17.0645 24.9769 16.4167 24.6551C14.8372 23.8686 13.3508 25.3218 11.9974 25.951C11.7986 26.2353 13.0381 27.4907 13.0493 27.9741C9.73001 29.7404 6.31613 31.5327 2.86696 33.0248H1.18326C0.849731 32.5154 0.75352 32.2773 0.695793 31.6597C0.516199 29.6986 0.524217 26.2555 0.695793 24.29C1.02932 20.4731 4.51377 20.0128 8.07839 20.3274ZM5.51276 28.192C5.35882 27.6956 5.51276 25.7129 5.51276 25.0173C5.51276 24.5656 4.22995 24.6984 4.22995 25.1616V29.3465C4.22995 29.4345 4.49132 29.5601 4.63243 29.5716C5.2578 29.6178 7.02969 28.4172 7.67912 28.1213C7.90361 27.8443 7.38567 28.0189 7.27022 28.042C6.89179 28.117 5.63623 28.5874 5.51276 28.192ZM22.5101 25.0173C22.3545 25.469 22.5101 27.7865 22.5101 28.4806C22.5101 28.5701 22.2711 28.6812 22.1252 28.6899C21.3347 28.7404 18.9005 28.0059 17.8983 27.8674C17.73 27.8443 17.2217 27.749 17.2168 27.9034C18.025 28.1055 23.0889 29.6712 23.469 29.498C23.7287 29.3797 23.7672 29.1517 23.7993 28.9208C23.8843 28.3277 23.9035 25.8514 23.7881 25.3103C23.6389 24.6104 22.6768 24.5339 22.5085 25.0188L22.5101 25.0173ZM7.99822 27.8313V27.9756C8.10244 27.928 8.10244 27.8789 7.99822 27.8313Z" fill="#5E92CB"/>
<path id="Vector_4" d="M23.1514 33.3149C23.0344 34.4809 23.307 35.8677 23.1595 37.0019C23.1402 37.1477 23.0857 37.4998 22.9109 37.4998H5.11186C4.65646 37.4998 4.95792 34.3554 4.87133 33.8921L11.7103 30.322C15.4898 31.0421 19.3992 32.6684 23.1514 33.3149Z" fill="#5E92CB"/>
<path id="Vector_5" d="M23.3118 20.3274C25.5583 20.5078 27.1362 22.1456 27.327 24.1457C27.4873 25.8283 27.4889 28.9684 27.327 30.6496C27.1185 32.8199 25.4124 33.7045 23.1514 33.3135C19.4008 32.667 15.4898 31.0406 11.7103 30.3206L4.87132 33.8907C3.45862 34.491 1.98338 34.25 1.18323 33.0249H2.86692C6.31449 31.5327 9.72838 29.7405 13.0493 27.9741C13.0894 27.9525 13.1695 27.9958 13.2096 27.9741C13.2465 28.3609 13.8077 28.7924 13.851 29.1286C13.8574 29.1733 13.6778 29.3119 13.6907 29.4158L23.4641 31.9498C24.8656 32.1489 25.422 32.1792 25.5631 30.7939C25.7235 29.2152 25.77 24.9812 25.4862 23.4935C25.1703 21.8397 23.8217 20.9162 22.1909 20.3259C22.5597 20.3332 22.9494 20.2971 23.3134 20.3259L23.3118 20.3274Z" fill="#3F81C2"/>
<path id="Vector_6" d="M23.3118 20.3274C22.9478 20.2985 22.5581 20.3346 22.1893 20.3274C22.029 20.3245 21.8686 20.3245 21.7083 20.3274C22.0322 20.0878 22.9574 20.0806 23.3118 20.3274Z" fill="#D3E5F6"/>
<path id="Vector_7" d="M22.5101 25.0173C22.6785 24.5325 23.6406 24.6104 23.7897 25.3088C23.9052 25.85 23.8859 28.3263 23.8009 28.9194C23.7673 29.1502 23.7304 29.3797 23.4706 29.4966C23.089 29.6697 18.0251 28.104 17.2185 27.902C17.2233 27.749 17.7332 27.8428 17.9 27.8659C18.9006 28.0045 21.3347 28.739 22.1269 28.6885C22.2744 28.6784 22.5117 28.5687 22.5117 28.4792C22.5117 27.7851 22.3562 25.4676 22.5117 25.0159L22.5101 25.0173Z" fill="#3E80C2"/>
<path id="Vector_8" d="M5.5128 28.1921C5.63627 28.5875 6.89182 28.1156 7.27025 28.042C7.38731 28.0189 7.90364 27.8428 7.67915 28.1214C7.02972 28.4172 5.25784 29.6178 4.63246 29.5716C4.49135 29.5615 4.22998 29.436 4.22998 29.3465V25.1616C4.22998 24.6984 5.5128 24.5657 5.5128 25.0173C5.5128 25.7129 5.35886 27.6957 5.5128 28.1921Z" fill="#3E80C2"/>
<path id="Vector_9" d="M7.99817 27.8313C8.1024 27.8789 8.1024 27.928 7.99817 27.9756V27.8313Z" fill="#3E80C2"/>
</g>
<g id="Group_4">
<path id="Vector_10" d="M18.5012 6.32968C19.0079 7.06853 18.9823 7.96467 19.1426 8.78288C18.4371 8.40191 17.7219 8.94883 16.9843 8.93151C16.4022 8.91853 14.5068 8.07722 14.9959 9.40917C15.2797 10.1855 18.7497 10.2274 19.303 9.3601C19.8289 12.6272 20.4928 17.0141 16.0639 18.206C15.3872 18.3879 14.6447 18.359 14.0114 18.5957C13.4036 18.5986 12.6708 18.6491 12.0871 18.5957C11.8258 18.5711 10.7482 18.3763 10.4836 18.3071C9.80051 18.1267 8.75822 17.5985 8.23869 17.1526C7.95005 16.9059 7.45777 16.32 7.27657 15.9982C6.15251 14.0039 6.77467 10.7931 7.19319 8.63569C7.3808 7.66595 7.59888 5.20842 8.80954 5.03959C11.2693 4.69758 11.016 5.47683 12.6692 6.16806C14.6479 6.99493 16.4583 6.39895 18.5012 6.33112V6.32968ZM9.1575 8.66166C8.89292 8.72949 8.66522 8.99501 8.73898 9.25764C9.03082 10.2837 12.8857 10.2245 13.0557 9.28362C13.2721 8.09598 11.667 8.91564 11.0384 8.93007C10.4098 8.9445 9.69628 8.52169 9.1575 8.66022V8.66166ZM9.78608 11.112C9.32266 11.2491 9.39482 12.0038 9.99614 12.1813C10.652 12.3747 12.9065 12.3977 12.3325 11.3789C12.1192 10.9994 10.1998 10.9893 9.78608 11.112ZM16.0494 11.1206C15.485 11.2707 15.4032 11.9807 16.0895 12.1813C16.8175 12.3934 18.8909 12.4208 18.4836 11.327C18.3569 10.9879 16.4375 11.0182 16.0494 11.1206ZM13.1663 14.1539C12.7109 14.2376 11.9172 14.6042 11.9123 15.0587C11.9011 16.1641 13.3988 15.1626 13.9456 15.141C14.6656 15.1121 15.3375 15.877 16.027 15.431C16.492 14.1539 14.1284 13.9779 13.1663 14.1554V14.1539Z" fill="#F8CEA3"/>
<path id="Vector_11" d="M20.7461 15.9982C20.6387 16.2045 20.0775 17.0372 19.9444 17.1526C19.7728 17.3013 18.6102 17.916 18.3409 18.0185C17.0212 18.5206 15.4208 18.5885 14.0114 18.5957C14.6447 18.359 15.3872 18.3879 16.0639 18.206C20.4928 17.0141 19.8289 12.6272 19.303 9.3601C19.2645 9.12489 19.1763 8.95172 19.1426 8.78288C18.9823 7.96467 19.0079 7.06853 18.5012 6.32968C19.683 6.29072 20.1721 6.05983 20.5393 7.16521C21.2544 9.32547 21.8061 13.9707 20.7461 15.9982Z" fill="#F6B986"/>
<path id="Vector_12" d="M10.4836 18.307V23.2134C10.0458 23.2206 8.32686 23.3087 8.14887 23.0778C7.98371 22.8628 8.08633 20.805 8.07832 20.3273C8.06389 19.3128 7.95485 18.118 8.23867 17.1526C8.75821 17.5985 9.8005 18.1267 10.4836 18.307Z" fill="#E8F3FC"/>
<path id="Vector_13" d="M19.9444 20.3273C19.7311 20.372 18.9214 20.8569 18.1805 21.0488C18.3874 20.0488 18.3489 19.0343 18.3409 18.0184C18.6103 17.916 19.7728 17.3012 19.9444 17.1526V20.3273Z" fill="#D3E5F6"/>
<path id="Vector_14" d="M18.3409 18.0184C18.3489 19.0343 18.3874 20.0488 18.1805 21.0489C16.1296 21.5785 14.223 21.7242 12.0871 21.6261C12.1032 20.6188 12.0759 19.6029 12.0871 18.5957C12.6708 18.649 13.4036 18.5985 14.0114 18.5957C15.4209 18.5884 17.0212 18.5206 18.3409 18.0184Z" fill="#E8F3FC"/>
<path id="Vector_15" d="M16.4167 24.6565C16.4952 25.3362 16.3637 25.873 15.8602 26.3925C15.0168 26.9409 14.0996 27.5008 13.2096 27.9756C13.1695 27.9972 13.0894 27.9539 13.0493 27.9756C13.038 27.4936 11.8001 26.2367 11.9974 25.9524C13.3507 25.3232 14.8372 23.8701 16.4167 24.6565Z" fill="#F8CEA3"/>
<path id="Vector_16" d="M12.0872 18.5956C12.076 19.6029 12.1032 20.6188 12.0872 21.6261C12.0792 22.1542 12.0936 22.6867 12.0872 23.2149C11.5548 23.2206 11.016 23.2062 10.4821 23.2149V18.3085C10.7466 18.3777 11.8242 18.5726 12.0856 18.5971L12.0872 18.5956Z" fill="#D7E9F8"/>
<path id="Vector_17" d="M13.851 29.13C13.8077 28.7937 13.2465 28.3623 13.2096 27.9755C14.0995 27.5008 15.0168 26.9409 15.8602 26.3925C16.3637 25.873 16.4952 25.3362 16.4166 24.6565C17.0645 24.9783 17.5936 25.7503 17.5102 26.4214C17.3387 27.8067 15.0055 28.5051 13.851 29.13Z" fill="#F6B986"/>
<path id="Vector_18" d="M9.15751 8.66166C9.69789 8.52313 10.4275 8.9445 11.0384 8.93151C11.6494 8.91852 13.2721 8.09598 13.0557 9.28506C12.8841 10.2259 9.02923 10.2851 8.73899 9.25909C8.66523 8.99645 8.89132 8.73093 9.15751 8.6631V8.66166Z" fill="#6C6169"/>
<path id="Vector_19" d="M19.1426 8.78291C19.1763 8.95175 19.2645 9.12492 19.303 9.36013C18.7498 10.2274 15.2814 10.1856 14.9959 9.4092C14.5069 8.07726 16.4022 8.91856 16.9843 8.93155C17.7219 8.94886 18.4371 8.40194 19.1426 8.78291Z" fill="#6C6169"/>
<path id="Vector_20" d="M13.1662 14.154C14.1284 13.9765 16.4919 14.1539 16.0269 15.4296C15.3374 15.8755 14.6655 15.1121 13.9456 15.1396C13.3972 15.1612 11.9011 16.1627 11.9123 15.0573C11.9171 14.6027 12.7108 14.2362 13.1662 14.1525V14.154Z" fill="#EF9475"/>
<path id="Vector_21" d="M9.78606 11.112C10.1998 10.9893 12.1176 10.9994 12.3325 11.3789C12.9065 12.3977 10.652 12.3746 9.99612 12.1813C9.3948 12.0038 9.32425 11.2491 9.78606 11.112Z" fill="#70636B"/>
<path id="Vector_22" d="M16.0495 11.1206C16.4391 11.0167 18.3569 10.9878 18.4836 11.327C18.8909 12.4208 16.8159 12.3934 16.0895 12.1813C15.4032 11.9807 15.485 11.2707 16.0495 11.1206Z" fill="#70636B"/>
</g>
</g>
</svg>
